<?xml version="1.0" encoding="UTF-8" standalone="no"?>
<svg
   width="222"
   height="148"
   viewBox="0 0 222 148"
   fill="none"
   version="1.1"
   id="svg41"
   sodipodi:docname="category-integrations.svg"
   inkscape:version="1.2.2 (b0a8486541, 2022-12-01)"
   xmlns:inkscape="http://www.inkscape.org/namespaces/inkscape"
   xmlns:sodipodi="http://sodipodi.sourceforge.net/DTD/sodipodi-0.dtd"
   xmlns="http://www.w3.org/2000/svg"
   xmlns:svg="http://www.w3.org/2000/svg">
  <sodipodi:namedview
     id="namedview43"
     pagecolor="#ffffff"
     bordercolor="#000000"
     borderopacity="0.25"
     inkscape:showpageshadow="2"
     inkscape:pageopacity="0.0"
     inkscape:pagecheckerboard="0"
     inkscape:deskcolor="#d1d1d1"
     showgrid="false"
     inkscape:zoom="1.5945946"
     inkscape:cx="111"
     inkscape:cy="74"
     inkscape:window-width="1440"
     inkscape:window-height="831"
     inkscape:window-x="0"
     inkscape:window-y="0"
     inkscape:window-maximized="1"
     inkscape:current-layer="svg41" />
  <rect
     style="fill:#f8f8f8;stroke-width:1.88976"
     id="rect378"
     width="222"
     height="148"
     x="0"
     y="0" />
  <g
     clip-path="url(#clip0_220_125)"
     id="g30">
    <circle
       cx="111.444"
       cy="74.4439"
       r="65.7627"
       transform="rotate(15 111.444 74.4439)"
       stroke="#D9E8F8"
       stroke-width="1.47202"
       stroke-dasharray="8 8"
       id="circle4" />
    <circle
       cx="110.819"
       cy="72.819"
       r="35.819"
       fill="white"
       id="circle6" />
    <circle
       cx="79.5"
       cy="18.5"
       r="11.5"
       fill="white"
       id="circle8" />
    <path
       fill-rule="evenodd"
       clip-rule="evenodd"
       d="M78.175 15.1448C77.9601 14.9229 77.8255 14.6223 77.8192 14.2891C77.8059 13.5906 78.3614 13.0135 79.0599 13.0002C79.7585 12.9869 80.3355 13.5424 80.3488 14.241C80.3555 14.5914 80.219 14.9113 79.993 15.1448H84.0299V18.5574C84.247 18.3656 84.5306 18.247 84.8429 18.2411C85.5414 18.2278 86.1185 18.7833 86.1318 19.4818C86.1451 20.1803 85.5896 20.7574 84.8911 20.7707C84.5615 20.777 84.2589 20.6566 84.0299 20.4543V24H80.139C80.2763 23.7932 80.3543 23.5439 80.3493 23.2769C80.336 22.5784 79.7589 22.0229 79.0604 22.0362C78.3618 22.0495 77.8063 22.6266 77.8196 23.3251C77.8244 23.5748 77.9012 23.8063 78.0299 24H74V20.5271C74.2157 20.685 74.4829 20.7762 74.7708 20.7707C75.4693 20.7574 76.0248 20.1803 76.0115 19.4818C75.9982 18.7833 75.4212 18.2278 74.7227 18.2411C74.4521 18.2462 74.2029 18.336 74 18.4846V15.1448H78.175Z"
       fill="#D9E8F8"
       id="path10" />
    <circle
       cx="173.5"
       cy="83.5"
       r="11.5"
       fill="white"
       id="circle12" />
    <circle
       cx="62.5"
       cy="120.5"
       r="11.5"
       transform="rotate(180 62.5 120.5)"
       fill="white"
       id="circle14" />
    <path
       fill-rule="evenodd"
       clip-rule="evenodd"
       d="M64.9067 121.26C64.8925 120.672 65.4844 120.186 66.2287 120.175C66.7462 120.167 67.2011 120.391 67.4351 120.726L67.4351 116.958L63.5236 116.958C63.8999 116.764 64.1452 116.426 64.136 116.045C64.1219 115.457 63.507 114.989 62.7627 115C62.0185 115.011 61.4266 115.497 61.4408 116.086C61.4496 116.452 61.6918 116.772 62.0533 116.958L58 116.958L58 125.404L67.4351 125.404L67.4351 121.754C67.2099 122.076 66.7792 122.297 66.28 122.305C65.5357 122.316 64.9209 121.848 64.9067 121.26Z"
       fill="#D9E8F8"
       id="path16" />
    <path
       fill-rule="evenodd"
       clip-rule="evenodd"
       d="M178 79L178 87.2511L169.985 87.2511L169.985 83.8904C169.78 84.0904 169.491 84.2176 169.167 84.2232C168.535 84.2341 168.012 83.7771 168 83.2025C167.988 82.6279 168.491 82.1531 169.123 82.1422C169.463 82.1363 169.77 82.2653 169.985 82.4749L169.985 79L173.128 79C172.985 79.1774 172.903 79.3973 172.908 79.6341C172.92 80.2087 173.442 80.6657 174.074 80.6548C174.707 80.6438 175.209 80.1691 175.197 79.5945C175.193 79.3719 175.111 79.1669 174.977 79L178 79Z"
       fill="#D9E8F8"
       id="path18" />
    <ellipse
       cx="1.14503"
       cy="1.04072"
       rx="1.14503"
       ry="1.04072"
       transform="matrix(-0.99985 0.0173015 -0.020945 -0.999781 175.219 88.9603)"
       fill="#D9E8F8"
       id="ellipse20" />
    <path
       fill-rule="evenodd"
       clip-rule="evenodd"
       d="M106.201 69.1094L111.613 70.4661L113.087 65.3042C114.015 65.1049 114.979 65 115.967 65C117.054 65 118.111 65.127 119.125 65.367L120.58 70.4661L125.783 69.1619C127.171 70.5962 128.248 72.3338 128.903 74.2656L125.064 78.2317L129.105 82.4057C128.569 84.2873 127.64 86.0033 126.412 87.4591L120.58 85.9972L118.865 92.0089C117.931 92.2107 116.961 92.317 115.967 92.317C115.07 92.317 114.194 92.2306 113.345 92.0657L111.613 85.9972L105.567 87.5129C104.362 86.0989 103.44 84.4361 102.889 82.6122L107.13 78.2317L103.099 74.0677C103.768 72.1916 104.836 70.5049 106.201 69.1094ZM116.071 83.7804C118.9 83.7804 121.193 81.4873 121.193 78.6585C121.193 75.8297 118.9 73.5366 116.071 73.5366C113.242 73.5366 110.949 75.8297 110.949 78.6585C110.949 81.4873 113.242 83.7804 116.071 83.7804Z"
       fill="#D8E7F8"
       id="path22" />
    <circle
       cx="116.096"
       cy="78.2317"
       r="9.39022"
       stroke="#D8E7F8"
       stroke-width="2.56097"
       id="circle24" />
    <path
       fill-rule="evenodd"
       clip-rule="evenodd"
       d="M94.8467 56.3708L97.9693 57.1535L98.8192 54.1755C99.3549 54.0605 99.9108 54 100.481 54C101.108 54 101.718 54.0733 102.303 54.2117L103.143 57.1535L106.144 56.4011C106.945 57.2286 107.566 58.231 107.944 59.3456L105.729 61.6336L108.06 64.0417C107.751 65.1273 107.215 66.1173 106.507 66.9571L103.143 66.1138L102.153 69.5821C101.614 69.6985 101.054 69.7598 100.481 69.7598C99.9635 69.7598 99.4579 69.71 98.9685 69.6148L97.9693 66.1138L94.4807 66.9882C93.7855 66.1724 93.2537 65.2131 92.9361 64.1609L95.3827 61.6336L93.057 59.2313C93.4432 58.149 94.0594 57.1759 94.8467 56.3708ZM100.541 64.8349C102.173 64.8349 103.496 63.5119 103.496 61.8799C103.496 60.248 102.173 58.925 100.541 58.925C98.9089 58.925 97.5859 60.248 97.5859 61.8799C97.5859 63.5119 98.9089 64.8349 100.541 64.8349Z"
       fill="#D8E7F8"
       id="path26" />
    <circle
       cx="100.556"
       cy="61.6337"
       r="5.41743"
       stroke="#D8E7F8"
       stroke-width="1.47748"
       id="circle28" />
  </g>
  <defs
     id="defs39">
    <clipPath
       id="clip0_220_125">
      <rect
         width="222"
         height="148"
         fill="white"
         id="rect36" />
    </clipPath>
  </defs>
</svg>
