<?xml version="1.0" encoding="UTF-8" standalone="no"?>
<!-- Created with Inkscape (http://www.inkscape.org/) -->

<svg
   width="300mm"
   height="200mm"
   viewBox="0 0 300 200"
   version="1.1"
   id="svg5"
   inkscape:version="1.2.2 (b0a8486541, 2022-12-01)"
   sodipodi:docname="plugin-icon-placeholder.svg"
   xmlns:inkscape="http://www.inkscape.org/namespaces/inkscape"
   xmlns:sodipodi="http://sodipodi.sourceforge.net/DTD/sodipodi-0.dtd"
   xmlns="http://www.w3.org/2000/svg"
   xmlns:svg="http://www.w3.org/2000/svg">
  <sodipodi:namedview
     id="namedview7"
     pagecolor="#ffffff"
     bordercolor="#000000"
     borderopacity="0.25"
     inkscape:showpageshadow="2"
     inkscape:pageopacity="0.0"
     inkscape:pagecheckerboard="0"
     inkscape:deskcolor="#d1d1d1"
     inkscape:document-units="mm"
     showgrid="true"
     inkscape:zoom="0.33764632"
     inkscape:cx="669.33945"
     inkscape:cy="685.62869"
     inkscape:window-width="1440"
     inkscape:window-height="836"
     inkscape:window-x="0"
     inkscape:window-y="0"
     inkscape:window-maximized="1"
     inkscape:current-layer="layer1">
    <inkscape:grid
       type="xygrid"
       id="grid132" />
  </sodipodi:namedview>
  <defs
     id="defs2" />
  <g
     inkscape:label="Layer 1"
     inkscape:groupmode="layer"
     id="layer1">
    <rect
       style="fill:#ececec;stroke-width:0.499999"
       id="rect960"
       width="301.625"
       height="201.08333"
       x="0"
       y="0"
       ry="0" />
    <path
       id="rect514"
       style="fill:#000000;stroke-width:0.294116"
       d="m 144.43168,27.210624 c -12.0338,-1e-6 -21.78913,12.45093 -9.3382,24.901862 v 6.225466 H 99.243243 c -1.239752,0 -2.237884,0.998133 -2.237884,2.237885 l 0.735325,32.002183 h 6.225466 c 12.45093,-12.450938 28.0146,-6.225473 28.0146,9.33821 0,15.56366 -15.56367,21.78912 -28.0146,9.3382 h -6.225466 l -0.735325,38.96295 c -0.02339,1.23954 0.998132,2.23789 2.237884,2.23789 l 35.850237,-0.73532 v -6.22547 c -12.45093,-15.56366 -2.6956,-24.90186 9.3382,-24.90186 12.03381,0 21.78913,9.3382 9.33821,24.90186 v 6.22547 l 35.1149,0.73532 c 1.23949,0.0259 2.23789,-0.99813 2.23789,-2.23789 v -35.85023 h 6.22546 c 11.04508,13.81644 24.90186,3.11274 24.90186,-9.3382 0,-12.45093 -13.85678,-25.202904 -24.90186,-9.338204 h -6.22546 V 60.575837 c 0,-1.239752 -0.99813,-2.237885 -2.23789,-2.237885 h -35.1149 v -6.225466 c 12.45092,-12.450932 2.69559,-24.901859 -9.33821,-24.901862 z"
       sodipodi:nodetypes="sccsscczccssccsccsscczccssccs" />
  </g>
</svg>
