<?xml version="1.0" encoding="UTF-8" standalone="no"?>
<svg
   width="222"
   height="148"
   viewBox="0 0 222 148"
   fill="none"
   version="1.1"
   id="svg35"
   sodipodi:docname="category-themes.svg"
   inkscape:version="1.2.2 (b0a8486541, 2022-12-01)"
   xmlns:inkscape="http://www.inkscape.org/namespaces/inkscape"
   xmlns:sodipodi="http://sodipodi.sourceforge.net/DTD/sodipodi-0.dtd"
   xmlns="http://www.w3.org/2000/svg"
   xmlns:svg="http://www.w3.org/2000/svg">
  <sodipodi:namedview
     id="namedview37"
     pagecolor="#ffffff"
     bordercolor="#000000"
     borderopacity="0.25"
     inkscape:showpageshadow="2"
     inkscape:pageopacity="0.0"
     inkscape:pagecheckerboard="0"
     inkscape:deskcolor="#d1d1d1"
     showgrid="false"
     inkscape:zoom="1.5945946"
     inkscape:cx="111"
     inkscape:cy="74"
     inkscape:window-width="1440"
     inkscape:window-height="831"
     inkscape:window-x="0"
     inkscape:window-y="0"
     inkscape:window-maximized="1"
     inkscape:current-layer="svg35" />
  <rect
     style="fill:#f8f8f8;stroke-width:1.88976"
     id="rect372"
     width="222"
     height="148"
     x="0"
     y="0" />
  <g
     clip-path="url(#clip0_220_537)"
     id="g24">
    <path
       d="M0 8C0 3.58173 3.58172 0 8 0H214C218.418 0 222 3.58172 222 8V148H0V8Z"
       fill="#F8F8F8"
       id="path2" />
    <circle
       cx="111.444"
       cy="74.4439"
       r="65.7627"
       transform="rotate(15 111.444 74.4439)"
       stroke="#D9E8F8"
       stroke-width="1.47202"
       stroke-dasharray="8 8"
       id="circle4" />
    <circle
       cx="110.819"
       cy="72.819"
       r="35.819"
       fill="white"
       id="circle6" />
    <circle
       cx="79.5"
       cy="18.5"
       r="11.5"
       fill="white"
       id="circle8" />
    <path
       fill-rule="evenodd"
       clip-rule="evenodd"
       d="M78.175 15.1448C77.9601 14.9229 77.8255 14.6223 77.8192 14.2891C77.8059 13.5906 78.3614 13.0135 79.0599 13.0002C79.7585 12.9869 80.3355 13.5424 80.3488 14.241C80.3555 14.5914 80.219 14.9113 79.993 15.1448H84.0299V18.5574C84.247 18.3656 84.5306 18.247 84.8429 18.2411C85.5414 18.2278 86.1185 18.7833 86.1318 19.4818C86.1451 20.1803 85.5896 20.7574 84.8911 20.7707C84.5615 20.777 84.2589 20.6566 84.0299 20.4543V24H80.139C80.2763 23.7932 80.3543 23.5439 80.3493 23.2769C80.336 22.5784 79.7589 22.0229 79.0604 22.0362C78.3618 22.0495 77.8063 22.6266 77.8196 23.3251C77.8244 23.5748 77.9012 23.8063 78.0299 24H74V20.5271C74.2157 20.685 74.4829 20.7762 74.7708 20.7707C75.4693 20.7574 76.0248 20.1803 76.0115 19.4818C75.9982 18.7833 75.4212 18.2278 74.7227 18.2411C74.4521 18.2462 74.2029 18.336 74 18.4846V15.1448H78.175Z"
       fill="#D9E8F8"
       id="path10" />
    <circle
       cx="173.5"
       cy="83.5"
       r="11.5"
       fill="white"
       id="circle12" />
    <circle
       cx="62.5"
       cy="120.5"
       r="11.5"
       transform="rotate(180 62.5 120.5)"
       fill="white"
       id="circle14" />
    <path
       fill-rule="evenodd"
       clip-rule="evenodd"
       d="M64.9067 121.26C64.8925 120.672 65.4844 120.186 66.2287 120.175C66.7462 120.167 67.2011 120.391 67.4351 120.726L67.4351 116.958L63.5236 116.958C63.8999 116.764 64.1452 116.426 64.136 116.045C64.1219 115.457 63.507 114.989 62.7627 115C62.0185 115.011 61.4266 115.497 61.4408 116.086C61.4496 116.452 61.6918 116.772 62.0533 116.958L58 116.958L58 125.404L67.4351 125.404L67.4351 121.754C67.2099 122.076 66.7792 122.297 66.28 122.305C65.5357 122.316 64.9209 121.848 64.9067 121.26Z"
       fill="#D9E8F8"
       id="path16" />
    <path
       fill-rule="evenodd"
       clip-rule="evenodd"
       d="M178 79L178 87.2511L169.985 87.2511L169.985 83.8904C169.78 84.0904 169.491 84.2176 169.167 84.2232C168.535 84.2341 168.012 83.7771 168 83.2025C167.988 82.6279 168.491 82.1531 169.123 82.1422C169.463 82.1363 169.77 82.2653 169.985 82.4749L169.985 79L173.128 79C172.985 79.1774 172.903 79.3973 172.908 79.6341C172.92 80.2087 173.442 80.6657 174.074 80.6548C174.707 80.6438 175.209 80.1691 175.197 79.5945C175.193 79.3719 175.111 79.1669 174.977 79L178 79Z"
       fill="#D9E8F8"
       id="path18" />
    <ellipse
       cx="1.14503"
       cy="1.04072"
       rx="1.14503"
       ry="1.04072"
       transform="matrix(-0.99985 0.0173015 -0.020945 -0.999781 175.219 88.9603)"
       fill="#D9E8F8"
       id="ellipse20" />
    <path
       fill-rule="evenodd"
       clip-rule="evenodd"
       d="M103.781 59.7786C104.665 59.7786 105.219 58.599 104.997 57.7442C104.909 57.4021 104.858 57.0442 104.851 56.6753C104.803 54.1419 106.818 52.0491 109.351 52.0008C111.884 51.9526 113.977 53.9672 114.026 56.5007C114.034 56.9307 113.982 57.3481 113.879 57.7449C113.657 58.5995 114.212 59.7786 115.095 59.7786H126.376C126.928 59.7786 127.376 60.2263 127.376 60.7786V69.9376C127.376 70.799 128.485 71.3415 129.322 71.1377C129.644 71.0593 129.98 71.0148 130.325 71.0082C132.858 70.96 134.951 72.9746 134.999 75.508C135.047 78.0414 133.033 80.1343 130.499 80.1825C130.093 80.1902 129.698 80.1449 129.322 80.053C128.485 79.8489 127.376 80.3911 127.376 81.2524V90.8945C127.376 91.4468 126.928 91.8945 126.376 91.8945H115.129C114.331 91.8945 113.814 90.9619 113.956 90.1766C114.008 89.8835 114.033 89.581 114.027 89.2719C113.979 86.7385 111.886 84.7239 109.353 84.7721C106.819 84.8204 104.805 86.9132 104.853 89.4466C104.858 89.6953 104.882 89.9391 104.925 90.1764C105.066 90.9617 104.549 91.8945 103.751 91.8945H92C91.4477 91.8945 91 91.4468 91 90.8945V81.2709C91 80.4521 91.9866 79.928 92.789 80.0913C93.1136 80.1574 93.4505 80.1891 93.7955 80.1825C96.329 80.1343 98.3436 78.0414 98.2954 75.508C98.2471 72.9746 96.1543 70.96 93.6209 71.0082C93.3364 71.0136 93.0585 71.0448 92.7894 71.0995C91.9869 71.2625 91 70.7382 91 69.9194V60.7786C91 60.2263 91.4477 59.7786 92 59.7786H103.781Z"
       fill="#D8E8F8"
       id="path22" />
  </g>
  <defs
     id="defs33">
    <clipPath
       id="clip0_220_537">
      <rect
         width="222"
         height="148"
         fill="white"
         id="rect30" />
    </clipPath>
  </defs>
</svg>
