<?xml version="1.0" encoding="UTF-8" standalone="no"?>
<svg
   width="222"
   height="148"
   viewBox="0 0 222 148"
   fill="none"
   version="1.1"
   id="svg35"
   sodipodi:docname="category-developer-tools-2.svg"
   inkscape:version="1.2.2 (b0a8486541, 2022-12-01)"
   xmlns:inkscape="http://www.inkscape.org/namespaces/inkscape"
   xmlns:sodipodi="http://sodipodi.sourceforge.net/DTD/sodipodi-0.dtd"
   xmlns="http://www.w3.org/2000/svg"
   xmlns:svg="http://www.w3.org/2000/svg">
  <sodipodi:namedview
     id="namedview37"
     pagecolor="#ffffff"
     bordercolor="#000000"
     borderopacity="0.25"
     inkscape:showpageshadow="2"
     inkscape:pageopacity="0.0"
     inkscape:pagecheckerboard="0"
     inkscape:deskcolor="#d1d1d1"
     showgrid="false"
     inkscape:zoom="1.5945946"
     inkscape:cx="111"
     inkscape:cy="74"
     inkscape:window-width="1440"
     inkscape:window-height="831"
     inkscape:window-x="0"
     inkscape:window-y="0"
     inkscape:window-maximized="1"
     inkscape:current-layer="svg35" />
  <g
     clip-path="url(#clip0_220_195)"
     id="g24">
    <path
       d="M0 8C0 3.58173 3.58172 0 8 0H214C218.418 0 222 3.58172 222 8V148H0V8Z"
       fill="#F8F8F8"
       id="path2" />
    <circle
       cx="111.444"
       cy="74.4439"
       r="65.7627"
       transform="rotate(15 111.444 74.4439)"
       stroke="#D9E8F8"
       stroke-width="1.47202"
       stroke-dasharray="8 8"
       id="circle4" />
    <circle
       cx="110.819"
       cy="72.819"
       r="35.819"
       fill="white"
       id="circle6" />
    <circle
       cx="79.5"
       cy="18.5"
       r="11.5"
       fill="white"
       id="circle8" />
    <path
       fill-rule="evenodd"
       clip-rule="evenodd"
       d="M78.175 15.1448C77.9601 14.9229 77.8255 14.6223 77.8192 14.2891C77.8059 13.5906 78.3614 13.0135 79.0599 13.0002C79.7585 12.9869 80.3355 13.5424 80.3488 14.241C80.3555 14.5914 80.219 14.9113 79.993 15.1448H84.0299V18.5574C84.247 18.3656 84.5306 18.247 84.8429 18.2411C85.5414 18.2278 86.1185 18.7833 86.1318 19.4818C86.1451 20.1803 85.5896 20.7574 84.8911 20.7707C84.5615 20.777 84.2589 20.6566 84.0299 20.4543V24H80.139C80.2763 23.7932 80.3543 23.5439 80.3493 23.2769C80.336 22.5784 79.7589 22.0229 79.0604 22.0362C78.3618 22.0495 77.8063 22.6266 77.8196 23.3251C77.8244 23.5748 77.9012 23.8063 78.0299 24H74V20.5271C74.2157 20.685 74.4829 20.7762 74.7708 20.7707C75.4693 20.7574 76.0248 20.1803 76.0115 19.4818C75.9982 18.7833 75.4212 18.2278 74.7227 18.2411C74.4521 18.2462 74.2029 18.336 74 18.4846V15.1448H78.175Z"
       fill="#D9E8F8"
       id="path10" />
    <circle
       cx="173.5"
       cy="83.5"
       r="11.5"
       fill="white"
       id="circle12" />
    <circle
       cx="62.5"
       cy="120.5"
       r="11.5"
       transform="rotate(180 62.5 120.5)"
       fill="white"
       id="circle14" />
    <path
       fill-rule="evenodd"
       clip-rule="evenodd"
       d="M64.9067 121.26C64.8925 120.672 65.4844 120.186 66.2287 120.175C66.7462 120.167 67.2011 120.391 67.4351 120.726L67.4351 116.958L63.5236 116.958C63.8999 116.764 64.1452 116.426 64.136 116.045C64.1219 115.457 63.507 114.989 62.7627 115C62.0185 115.011 61.4266 115.497 61.4408 116.086C61.4496 116.452 61.6918 116.772 62.0533 116.958L58 116.958L58 125.404L67.4351 125.404L67.4351 121.754C67.2099 122.076 66.7792 122.297 66.28 122.305C65.5357 122.316 64.9209 121.848 64.9067 121.26Z"
       fill="#D9E8F8"
       id="path16" />
    <path
       fill-rule="evenodd"
       clip-rule="evenodd"
       d="M178 79L178 87.2511L169.985 87.2511L169.985 83.8904C169.78 84.0904 169.491 84.2176 169.167 84.2232C168.535 84.2341 168.012 83.7771 168 83.2025C167.988 82.6279 168.491 82.1531 169.123 82.1422C169.463 82.1363 169.77 82.2653 169.985 82.4749L169.985 79L173.128 79C172.985 79.1774 172.903 79.3973 172.908 79.6341C172.92 80.2087 173.442 80.6657 174.074 80.6548C174.707 80.6438 175.209 80.1691 175.197 79.5945C175.193 79.3719 175.111 79.1669 174.977 79L178 79Z"
       fill="#D9E8F8"
       id="path18" />
    <ellipse
       cx="1.14503"
       cy="1.04072"
       rx="1.14503"
       ry="1.04072"
       transform="matrix(-0.99985 0.0173015 -0.020945 -0.999781 175.219 88.9603)"
       fill="#D9E8F8"
       id="ellipse20" />
    <path
       d="M103.12 92.76C100.88 92.76 99.1867 92.2 98.04 91.08C96.8933 89.96 96.32 88.3467 96.32 86.24V78C96.32 77.3333 96.16 76.8533 95.84 76.56C95.52 76.24 95.08 76.08 94.52 76.08H93.2V72H94.52C95.08 72 95.52 71.84 95.84 71.52C96.16 71.2 96.32 70.72 96.32 70.08V61.84C96.32 59.7067 96.8933 58.0933 98.04 57C99.1867 55.88 100.88 55.32 103.12 55.32H105.12V59.32H104.28C103.293 59.32 102.547 59.5867 102.04 60.12C101.56 60.6533 101.32 61.4 101.32 62.36V69.96C101.32 71.0267 101.187 71.8533 100.92 72.44C100.653 73.0267 100.227 73.4667 99.64 73.76C99.08 74.0267 98.3467 74.2267 97.44 74.36V73.72C98.3467 73.8267 99.08 74.0267 99.64 74.32C100.227 74.6133 100.653 75.0533 100.92 75.64C101.187 76.2267 101.32 77.0533 101.32 78.12V85.72C101.32 86.68 101.56 87.4267 102.04 87.96C102.547 88.4933 103.293 88.76 104.28 88.76H105.12V92.76H103.12ZM119.539 92.76H117.539V88.76H118.379C119.393 88.76 120.139 88.4933 120.619 87.96C121.126 87.4267 121.379 86.68 121.379 85.72V78.12C121.379 77.0533 121.513 76.2267 121.779 75.64C122.073 75.0533 122.499 74.6133 123.059 74.32C123.619 74.0267 124.339 73.8267 125.219 73.72V74.36C124.339 74.2267 123.619 74.0267 123.059 73.76C122.499 73.4667 122.073 73.0267 121.779 72.44C121.513 71.8533 121.379 71.0267 121.379 69.96V62.36C121.379 61.4 121.126 60.6533 120.619 60.12C120.139 59.5867 119.393 59.32 118.379 59.32H117.539V55.32H119.539C121.806 55.32 123.513 55.88 124.659 57C125.806 58.0933 126.379 59.7067 126.379 61.84V70.08C126.379 70.72 126.539 71.2 126.859 71.52C127.179 71.84 127.606 72 128.139 72H129.499V76.08H128.139C127.606 76.08 127.179 76.24 126.859 76.56C126.539 76.8533 126.379 77.3333 126.379 78V86.24C126.379 88.3467 125.806 89.96 124.659 91.08C123.513 92.2 121.806 92.76 119.539 92.76Z"
       fill="#D8E7F8"
       id="path22" />
  </g>
  <defs
     id="defs33">
    <clipPath
       id="clip0_220_195">
      <rect
         width="222"
         height="148"
         fill="white"
         id="rect30" />
    </clipPath>
  </defs>
</svg>
