<?xml version="1.0" encoding="UTF-8" standalone="no"?>
<svg
   width="222"
   height="148"
   viewBox="0 0 222 148"
   fill="none"
   version="1.1"
   id="svg47"
   sodipodi:docname="category-tags.svg"
   inkscape:version="1.2.2 (b0a8486541, 2022-12-01)"
   xmlns:inkscape="http://www.inkscape.org/namespaces/inkscape"
   xmlns:sodipodi="http://sodipodi.sourceforge.net/DTD/sodipodi-0.dtd"
   xmlns="http://www.w3.org/2000/svg"
   xmlns:svg="http://www.w3.org/2000/svg">
  <sodipodi:namedview
     id="namedview49"
     pagecolor="#ffffff"
     bordercolor="#000000"
     borderopacity="0.25"
     inkscape:showpageshadow="2"
     inkscape:pageopacity="0.0"
     inkscape:pagecheckerboard="0"
     inkscape:deskcolor="#d1d1d1"
     showgrid="false"
     inkscape:zoom="1.5945946"
     inkscape:cx="111"
     inkscape:cy="74"
     inkscape:window-width="1440"
     inkscape:window-height="831"
     inkscape:window-x="0"
     inkscape:window-y="0"
     inkscape:window-maximized="1"
     inkscape:current-layer="svg47" />
  <rect
     style="fill:#f8f8f8;stroke-width:1.88976"
     id="rect384"
     width="222"
     height="148"
     x="0"
     y="0" />
  <g
     clip-path="url(#clip0_220_299)"
     id="g38">
    <circle
       cx="111.444"
       cy="74.4439"
       r="65.7627"
       transform="rotate(15 111.444 74.4439)"
       stroke="#D9E8F8"
       stroke-width="1.47202"
       stroke-dasharray="8 8"
       id="circle4" />
    <circle
       cx="109.819"
       cy="73.819"
       r="35.819"
       fill="white"
       id="circle6" />
    <circle
       cx="79.5"
       cy="18.5"
       r="11.5"
       fill="white"
       id="circle8" />
    <path
       fill-rule="evenodd"
       clip-rule="evenodd"
       d="M78.175 15.1448C77.9601 14.9229 77.8255 14.6223 77.8192 14.2891C77.8059 13.5906 78.3614 13.0135 79.0599 13.0002C79.7585 12.9869 80.3355 13.5424 80.3488 14.241C80.3555 14.5914 80.219 14.9113 79.993 15.1448H84.0299V18.5574C84.247 18.3656 84.5306 18.247 84.8429 18.2411C85.5414 18.2278 86.1185 18.7833 86.1318 19.4818C86.1451 20.1803 85.5896 20.7574 84.8911 20.7707C84.5615 20.777 84.2589 20.6566 84.0299 20.4543V24H80.139C80.2763 23.7932 80.3543 23.5439 80.3493 23.2769C80.336 22.5784 79.7589 22.0229 79.0604 22.0362C78.3618 22.0495 77.8063 22.6266 77.8196 23.3251C77.8244 23.5748 77.9012 23.8063 78.0299 24H74V20.5271C74.2157 20.685 74.4829 20.7762 74.7708 20.7707C75.4693 20.7574 76.0248 20.1803 76.0115 19.4818C75.9982 18.7833 75.4212 18.2278 74.7227 18.2411C74.4521 18.2462 74.2029 18.336 74 18.4846V15.1448H78.175Z"
       fill="#D9E8F8"
       id="path10" />
    <circle
       cx="173.5"
       cy="83.5"
       r="11.5"
       fill="white"
       id="circle12" />
    <circle
       cx="62.5"
       cy="120.5"
       r="11.5"
       transform="rotate(180 62.5 120.5)"
       fill="white"
       id="circle14" />
    <path
       fill-rule="evenodd"
       clip-rule="evenodd"
       d="M64.9067 121.26C64.8925 120.672 65.4844 120.186 66.2287 120.175C66.7462 120.167 67.2011 120.391 67.4351 120.726L67.4351 116.958L63.5236 116.958C63.8999 116.764 64.1452 116.426 64.136 116.045C64.1219 115.457 63.507 114.989 62.7627 115C62.0185 115.011 61.4266 115.497 61.4408 116.086C61.4496 116.452 61.6918 116.772 62.0533 116.958L58 116.958L58 125.404L67.4351 125.404L67.4351 121.754C67.2099 122.076 66.7792 122.297 66.28 122.305C65.5357 122.316 64.9209 121.848 64.9067 121.26Z"
       fill="#D9E8F8"
       id="path16" />
    <path
       fill-rule="evenodd"
       clip-rule="evenodd"
       d="M178 79L178 87.2511L169.985 87.2511L169.985 83.8904C169.78 84.0904 169.491 84.2176 169.167 84.2232C168.535 84.2341 168.012 83.7771 168 83.2025C167.988 82.6279 168.491 82.1531 169.123 82.1422C169.463 82.1363 169.77 82.2653 169.985 82.4749L169.985 79L173.128 79C172.985 79.1774 172.903 79.3973 172.908 79.6341C172.92 80.2087 173.442 80.6657 174.074 80.6548C174.707 80.6438 175.209 80.1691 175.197 79.5945C175.193 79.3719 175.111 79.1669 174.977 79L178 79Z"
       fill="#D9E8F8"
       id="path18" />
    <ellipse
       cx="1.14503"
       cy="1.04072"
       rx="1.14503"
       ry="1.04072"
       transform="matrix(-0.99985 0.0173015 -0.020945 -0.999781 175.219 88.9603)"
       fill="#D9E8F8"
       id="ellipse20" />
    <mask
       id="path-13-inside-1_220_299"
       fill="white">
      <path
         fill-rule="evenodd"
         clip-rule="evenodd"
         d="M117.704 58.2586C117.674 58.2229 117.621 58.2181 117.585 58.2477L97.1554 75.2449C96.5173 75.7758 96.4304 76.7235 96.9613 77.3616L106.574 88.916C107.105 89.5541 108.053 89.641 108.691 89.1101L129.185 72.0593C129.185 72.0593 129.185 72.0593 129.185 72.0592C129.185 72.0592 129.185 72.0592 129.185 72.0592L128.615 61.5851C128.578 60.8988 128.08 60.3253 127.405 60.1922L117.752 58.2872C117.733 58.2835 117.716 58.2734 117.704 58.2586Z"
         id="path22" />
    </mask>
    <path
       d="M117.752 58.2872L117.171 61.2304L117.752 58.2872ZM128.615 61.5851L125.62 61.7482L128.615 61.5851ZM127.405 60.1922L126.825 63.1355L127.405 60.1922ZM129.185 72.0592L132.181 71.8962L129.185 72.0592ZM99.0741 77.5511L119.504 60.5539L115.667 55.9415L95.2367 72.9387L99.0741 77.5511ZM108.88 86.9973L99.2675 75.4429L94.6551 79.2803L104.268 90.8347L108.88 86.9973ZM127.267 69.7531L106.772 86.8039L110.61 91.4163L131.104 74.3655L127.267 69.7531ZM125.62 61.7482L126.19 72.2223L132.181 71.8962L131.611 61.4221L125.62 61.7482ZM117.171 61.2304L126.825 63.1355L127.986 57.249L118.333 55.344L117.171 61.2304ZM118.333 55.344C118.989 55.4736 119.582 55.8252 120.01 56.3399L115.397 60.1773C115.85 60.7215 116.476 61.0934 117.171 61.2304L118.333 55.344ZM131.611 61.4221C131.499 59.3659 130.006 57.6477 127.986 57.249L126.825 63.1355C126.153 63.0029 125.657 62.4317 125.62 61.7482L131.611 61.4221ZM131.492 70.1405C131.899 70.6301 132.145 71.2439 132.181 71.8962L126.19 72.2223C126.225 72.8746 126.472 73.4884 126.879 73.9779L131.492 70.1405ZM131.104 74.3655C132.378 73.3058 132.551 71.4142 131.492 70.1405L126.879 73.9779C125.819 72.7043 125.993 70.8127 127.267 69.7531L131.104 74.3655ZM104.268 90.8347C105.859 92.7465 108.698 93.0069 110.61 91.4163L106.772 86.8039C107.408 86.2751 108.352 86.3617 108.88 86.9973L104.268 90.8347ZM119.504 60.5539C118.266 61.5839 116.427 61.4153 115.397 60.1773L120.01 56.3399C118.92 55.0305 116.976 54.8522 115.667 55.9415L119.504 60.5539ZM95.2367 72.9387C93.3249 74.5293 93.0645 77.3685 94.6551 79.2803L99.2675 75.4429C99.7963 76.0785 99.7097 77.0223 99.0741 77.5511L95.2367 72.9387Z"
       fill="#ACB8C4"
       mask="url(#path-13-inside-1_220_299)"
       id="path25" />
    <circle
       cx="124.479"
       cy="67.3047"
       r="0.751516"
       transform="rotate(-39.7595 124.479 67.3047)"
       fill="#D9D9D9"
       stroke="#BFBFBF"
       stroke-width="1.50303"
       id="circle27" />
    <mask
       id="path-16-inside-2_220_299"
       fill="white">
      <path
         fill-rule="evenodd"
         clip-rule="evenodd"
         d="M115.565 56.3798C115.536 56.3444 115.483 56.3396 115.448 56.369L94.1589 74.0811C93.5208 74.612 93.4338 75.5597 93.9647 76.1978L103.578 87.7521C104.109 88.3903 105.056 88.4772 105.694 87.9463L126.48 70.6528C126.838 70.3552 127.038 69.9088 127.021 69.4438L126.669 59.5776C126.644 58.8695 126.128 58.2752 125.43 58.1513L115.615 56.4085C115.595 56.405 115.578 56.3949 115.565 56.3798Z"
         id="path29" />
    </mask>
    <path
       fill-rule="evenodd"
       clip-rule="evenodd"
       d="M115.565 56.3798C115.536 56.3444 115.483 56.3396 115.448 56.369L94.1589 74.0811C93.5208 74.612 93.4338 75.5597 93.9647 76.1978L103.578 87.7521C104.109 88.3903 105.056 88.4772 105.694 87.9463L126.48 70.6528C126.838 70.3552 127.038 69.9088 127.021 69.4438L126.669 59.5776C126.644 58.8695 126.128 58.2752 125.43 58.1513L115.615 56.4085C115.595 56.405 115.578 56.3949 115.565 56.3798Z"
       fill="#D7E7F7"
       id="path32" />
    <path
       d="M115.615 56.4085L116.139 53.4547L115.615 56.4085ZM126.669 59.5776L129.667 59.4707L126.669 59.5776ZM125.43 58.1513L124.906 61.1051L125.43 58.1513ZM127.021 69.4438L124.023 69.5507L127.021 69.4438ZM96.0776 76.3873L117.367 58.6752L113.529 54.0628L92.2402 71.7749L96.0776 76.3873ZM105.884 85.8334L96.2709 74.2791L91.6585 78.1165L101.271 89.6708L105.884 85.8334ZM124.562 68.3466L103.776 85.6401L107.613 90.2525L128.399 72.959L124.562 68.3466ZM123.671 59.6845L124.023 69.5507L130.019 69.3368L129.667 59.4707L123.671 59.6845ZM115.09 59.3623L124.906 61.1051L125.955 55.1975L116.139 53.4547L115.09 59.3623ZM116.139 53.4547C116.817 53.5751 117.431 53.9316 117.872 54.4611L113.259 58.2985C113.725 58.8581 114.373 59.235 115.09 59.3623L116.139 53.4547ZM129.667 59.4707C129.592 57.3491 128.045 55.5686 125.955 55.1975L124.906 61.1051C124.211 60.9817 123.696 60.3898 123.671 59.6845L129.667 59.4707ZM128.399 72.959C129.471 72.0675 130.069 70.7299 130.019 69.3368L124.023 69.5507C124.007 69.0876 124.206 68.643 124.562 68.3466L128.399 72.959ZM101.271 89.6708C102.862 91.5826 105.701 91.8431 107.613 90.2525L103.776 85.6401C104.411 85.1113 105.355 85.1979 105.884 85.8334L101.271 89.6708ZM117.367 58.6752C116.128 59.7055 114.289 59.5368 113.259 58.2985L117.872 54.4611C116.783 53.1521 114.839 52.9737 113.529 54.0628L117.367 58.6752ZM92.2402 71.7749C90.3284 73.3654 90.068 76.2047 91.6585 78.1165L96.2709 74.2791C96.7997 74.9146 96.7131 75.8585 96.0776 76.3873L92.2402 71.7749Z"
       fill="#C3D0DE"
       mask="url(#path-16-inside-2_220_299)"
       id="path34" />
    <circle
       cx="117.659"
       cy="65.3356"
       r="2.098"
       transform="rotate(-39.7595 117.659 65.3356)"
       fill="white"
       stroke="#ACB8C4"
       id="circle36" />
  </g>
  <defs
     id="defs45">
    <clipPath
       id="clip0_220_299">
      <rect
         width="222"
         height="148"
         fill="white"
         id="rect42" />
    </clipPath>
  </defs>
</svg>
